<svg fill="none" height="200" viewBox="0 0 200 200" width="200" xmlns="http://www.w3.org/2000/svg" xmlns:xlink="http://www.w3.org/1999/xlink"><linearGradient id="a" gradientUnits="userSpaceOnUse" x1="100" x2="100" y1="200" y2="0"><stop offset="0" stop-color="#ffc9b3"/><stop offset="1" stop-color="#ffd2c2"/></linearGradient><linearGradient id="b" gradientUnits="userSpaceOnUse" x1="85.971" x2="90.078" y1="140.777" y2="23.561"><stop offset="0" stop-color="#e6864e"/><stop offset="1" stop-color="#e67240"/></linearGradient><linearGradient id="c" gradientUnits="userSpaceOnUse" x1="81.86" x2="81.86" y1="27.169" y2="77.493"><stop offset="0" stop-color="#1d0024"/><stop offset="1" stop-color="#100014"/></linearGradient><linearGradient id="d" gradientUnits="userSpaceOnUse" x1="104.573" x2="104.573" y1="52.667" y2="158.759"><stop offset="0" stop-color="#ffe0cc"/><stop offset="1" stop-color="#ffeadb"/></linearGradient><linearGradient id="e" gradientUnits="userSpaceOnUse" x1="100" x2="100" y1="136" y2="202.667"><stop offset="0" stop-color="#130027"/><stop offset="1" stop-color="#130017"/></linearGradient><clipPath id="f"><path d="m0 100c0-55.2285 44.7715-100 100-100 55.228 0 100 44.7715 100 100 0 55.228-44.772 100-100 100-55.2285 0-100-44.772-100-100z"/></clipPath><g clip-path="url(#f)"><path d="m0 100c0-55.2285 44.7715-100 100-100 55.228 0 100 44.7715 100 100 0 55.228-44.772 100-100 100-55.2285 0-100-44.772-100-100z" fill="url(#a)"/><path d="m82.1953 139.249c5.7736-9.6 19.0287-28.001 50.5917-53.8571 47.626-39.0166 2.676-74.7038-45.6132-55.6969-5.1657 2.0335-19.4805-6.1071-32.7405 2.4691-8.5537 5.5323-5.2248 9.8679-8.5555 14.2035-3.3306 4.3357-16.1712 4.0805-18.9842 15.3385-1.666 6.6698 2.9443 13.6562 2.3277 18.6764-.6167 5.0202-5.4836 9.5455-5.7158 16.1728-.1005 2.7992.3514 5.5907 1.3299 8.2147.9785 2.625 2.4644 5.031 4.3729 7.081 1.9086 2.05 4.2022 3.704 6.7501 4.868 2.5479 1.163 5.3 1.813 8.0991 1.913.0229 5.534 2.1836 10.845 6.0306 14.823 3.847 3.977 9.0826 6.315 14.6125 6.522 3.5458.13 7.0675-.633 10.242-2.218 3.1497 2.903 5.8536 3.816 7.2527 1.49z" fill="url(#b)"/><path d="m94 27.3333c-8.2107 5.2667-18.3687 22.54-13.91 45.7273.9726 5.0594-2.0667 6.574-4.6667.3334-7.8447-18.8274-8.754-35.8067 4.6667-43.9287 2.3333-1.4047 3.6666-.2667 5.3333-.4047 3.17-.2626 7.438-2.5086 8.5767-1.7273z" fill="url(#c)"/><path d="m83.3333 129.333c0-6-.204-35.5942-.194-36.0942-16.4727 2.428-16.1393-28.9054.5273-21.2387 3.6667 2.3333 14 0 13-19.3334 18.0004 19.3334 38.8984-3.216 40.6904 15.1587 2.447 25.09-.015 51.3476-15.608 51.3496-1.705-.021-3.406-.191-5.082-.508v10.666c0 6.667 12 10 12 10s-20.728 19.534-29.3337 19.426c-8.6053-.108-28-19.426-28-19.426s12-3.333 12-10z" fill="url(#d)"/><path d="m116.666 118.663c-8.27-1.834-16.108-5.252-23.0791-10.066 0 0 5.7521 14.062 23.0581 16.731z" fill="#ffdbc9"/><path d="m161.333 159.333c4.837 10.748 7.334 43.334 7.334 43.334h-137.3337s2.4966-32.586 7.3333-43.334c4.2373-9.415 32.1593-20.226 40.342-23.333 4.7246 5.285 11.4953 8.667 20.9913 8.667 9.4961 0 16.2671-3.382 20.9911-8.667 8.183 3.107 36.105 13.918 40.342 23.333z" fill="url(#e)"/></g></svg>