<?xml version="1.0" standalone="no"?>
<!DOCTYPE svg PUBLIC "-//W3C//DTD SVG 20010904//EN"
 "http://www.w3.org/TR/2001/REC-SVG-20010904/DTD/svg10.dtd">
<svg version="1.0" xmlns="http://www.w3.org/2000/svg"
 width="1024.000000pt" height="1024.000000pt" viewBox="0 0 1024.000000 1024.000000"
 preserveAspectRatio="xMidYMid meet">
<metadata>
Created by potrace 1.14, written by Peter Selinger 2001-2017
</metadata>
<g transform="translate(0.000000,1024.000000) scale(0.100000,-0.100000)"
fill="#000000" stroke="none">
<path d="M5880 7020 c-536 -539 -976 -981 -977 -983 -1 -1 259 -265 578 -587
l579 -585 398 401 397 402 350 -355 c193 -195 445 -450 560 -568 344 -349
1024 -1039 1180 -1197 l145 -147 108 109 c59 59 247 251 419 427 171 175 381
389 467 476 l155 158 -30 32 c-17 18 -261 265 -542 550 -282 285 -624 631
-760 770 -137 138 -500 506 -807 817 -307 311 -713 722 -902 913 l-343 348
-975 -981z"/>
<path d="M2913 6353 c-265 -269 -677 -685 -915 -925 -1446 -1460 -1766 -1782
-1876 -1893 l-123 -123 251 -254 c138 -139 400 -403 581 -585 l330 -333 187
189 c103 104 520 525 927 936 407 410 824 832 927 936 103 104 190 189 193
189 4 0 193 -188 420 -417 228 -230 599 -605 825 -833 226 -228 541 -546 701
-707 l290 -292 225 227 c124 125 385 388 580 585 l356 359 -129 129 c-70 71
-330 332 -576 581 -247 249 -769 776 -1160 1171 -392 395 -896 905 -1122 1133
l-410 414 -482 -487z"/>
</g>
</svg>
