<?xml version="1.0" standalone="no"?>
<!DOCTYPE svg PUBLIC "-//W3C//DTD SVG 20010904//EN"
 "http://www.w3.org/TR/2001/REC-SVG-20010904/DTD/svg10.dtd">
<svg version="1.0" xmlns="http://www.w3.org/2000/svg"
 width="1024.000000pt" height="1024.000000pt" viewBox="0 0 1024.000000 1024.000000"
 preserveAspectRatio="xMidYMid meet">
<metadata>
Created by potrace 1.14, written by Peter Selinger 2001-2017
</metadata>
<g transform="translate(0.000000,1024.000000) scale(0.100000,-0.100000)"
fill="#000000" stroke="none">
<path d="M8110 8415 l0 -945 -1182 -2 -1183 -3 -3 -942 -2 -943 -1185 0 -1185
0 0 -945 0 -945 -1180 0 -1180 0 0 -935 0 -935 -505 0 -505 0 0 -475 0 -475
1090 0 1090 0 0 930 0 930 1185 0 1185 0 0 935 0 935 1190 0 1190 0 0 955 0
955 1175 0 1175 0 2 948 3 947 478 3 477 2 0 475 0 475 -1065 0 -1065 0 0
-945z"/>
<path d="M2251 9309 c-86 -28 -167 -106 -201 -194 -31 -83 -31 -198 -1 -278
27 -69 96 -143 166 -177 l50 -25 474 -3 475 -3 -831 -832 c-944 -946 -888
-880 -888 -1042 0 -78 4 -97 28 -147 36 -74 101 -139 175 -175 50 -25 68 -28
152 -28 168 0 99 -58 1042 883 l827 826 3 -470 3 -469 24 -49 c124 -251 516
-256 638 -8 l28 57 3 910 c3 899 2 911 -18 975 -37 113 -113 196 -228 245 -46
19 -71 20 -952 22 -887 2 -906 2 -969 -18z"/>
</g>
</svg>
