<?xml version="1.0" standalone="no"?>
<!DOCTYPE svg PUBLIC "-//W3C//DTD SVG 20010904//EN"
 "http://www.w3.org/TR/2001/REC-SVG-20010904/DTD/svg10.dtd">
<svg version="1.0" xmlns="http://www.w3.org/2000/svg"
 width="920.000000pt" height="920.000000pt" viewBox="0 0 920.000000 920.000000"
 preserveAspectRatio="xMidYMid meet">
<metadata>
Created by potrace 1.11, written by Peter Selinger 2001-2013
</metadata>
<g transform="translate(0.000000,920.000000) scale(0.100000,-0.100000)"
fill="#000000" stroke="none">
<path d="M3676 8490 c-876 -34 -1507 -131 -1982 -305 -137 -50 -381 -171 -489
-242 -533 -352 -804 -873 -832 -1598 -32 -867 459 -1607 1382 -2081 74 -38
135 -71 135 -74 0 -3 -410 -363 -911 -800 -640 -558 -918 -807 -936 -837 -51
-87 -38 -211 30 -287 60 -67 593 -374 1062 -611 1065 -538 2015 -830 3025
-932 318 -32 1030 -22 1625 23 1109 83 1841 286 2325 645 450 333 686 801 715
1419 27 549 -210 1075 -696 1545 -209 202 -501 420 -756 565 -51 29 -93 56
-93 61 0 4 418 373 930 819 1001 875 967 842 978 950 6 65 -21 142 -67 189
-38 40 -288 201 -536 346 -1121 656 -2244 1042 -3400 1170 -77 8 -196 20 -265
26 -163 14 -963 20 -1244 9z m1274 -514 c866 -79 1673 -293 2495 -661 358
-161 1072 -549 1065 -580 -1 -5 -424 -378 -939 -828 -1028 -897 -994 -864
-995 -976 -1 -134 45 -188 239 -280 365 -175 707 -407 963 -656 147 -142 225
-234 315 -370 221 -336 283 -685 195 -1095 -174 -812 -979 -1193 -2743 -1299
-582 -35 -1035 -37 -1360 -6 -1013 97 -2060 447 -3182 1064 -260 142 -314 174
-311 182 2 4 422 372 933 818 983 857 985 859 1000 956 9 66 -17 147 -65 199
-43 46 -51 51 -245 121 -247 89 -535 244 -742 401 -513 385 -750 890 -694
1474 42 435 182 743 436 961 427 367 1132 541 2385 589 331 13 1044 4 1250
-14z"/>
</g>
</svg>
